Coordinates
version=1
nRows=11
nColumns=42
inDegrees=yes

Units are S.I. units (second, meters, Newtons, ...)
If the header above contains a line with 'inDegrees', this indicates whether rotational values are in degrees (yes) or radians (no).

endheader
time	pelvis_tilt	pelvis_list	pelvis_rotation	pelvis_tx	pelvis_ty	pelvis_tz	hip_flexion_r	hip_adduction_r	hip_rotation_r	knee_angle_r	knee_adduction_r	knee_angle_r_beta	ankle_angle_r	subtalar_angle_r	mtp_angle_r	hip_flexion_l	hip_adduction_l	hip_rotation_l	knee_angle_l	knee_adduction_l	knee_angle_l_beta	ankle_angle_l	subtalar_angle_l	mtp_angle_l	lumbar_extension	lumbar_bending	lumbar_rotation	arm_flex_r	arm_add_r	arm_rot_r	elbow_flex_r	pro_sup_r	wrist_flex_r	wrist_dev_r	arm_flex_l	arm_add_l	arm_rot_l	elbow_flex_l	pro_sup_l	wrist_flex_l	wrist_dev_l
      1.98000000	     12.71817404	      0.89246798	      8.42494556	      0.29376811	      0.88004330	      0.15549461	     11.57868028	      0.85725632	     -8.95475312	     51.20676830	     -4.28204966	      0.89372671	     17.68167618	    -14.74577960	     -7.51343153	     -0.11635644	      6.67270567	     -7.41981104	     29.64456150	     -8.98744004	      0.51739520	     26.21881086	      3.86696674	     -7.51343153	    -41.52057898	      4.22279626	     -6.47989651	     13.83245836	     -5.49882676	     -2.33396593	     33.98402428	     90.00000001	      0.00000000	      0.00000000	     23.93969245	    -10.58025259	     -4.38350969	     30.60024757	     90.00000001	      0.00000000	      0.00000000
      1.99000000	     12.82741471	      0.67680712	      8.72266916	      0.30183465	      0.88026126	      0.15517989	     11.67121941	      1.15115185	     -8.32745397	     47.64097291	     -3.49300986	      0.83149184	     17.59094211	    -14.53229464	     -7.51305817	     -0.83230815	      6.19992930	     -7.60135747	     29.61536470	     -9.01568397	      0.51688562	     27.14635849	      4.41571442	     -7.51305817	    -41.68598366	      4.64701315	     -6.50812358	     13.68378799	     -5.33449313	     -3.10824350	     33.03921763	     90.00000001	      0.00000000	      0.00000000	     24.52425991	    -10.81587685	     -2.99500262	     30.96235929	     90.00000001	      0.00000000	      0.00000000
      2.00000000	     12.48751675	      0.81617805	      8.75990631	      0.30964797	      0.87934634	      0.15508216	     12.55494561	      0.96135735	     -7.98839123	     44.61570312	     -3.23392669	      0.77869092	     17.26007641	    -14.18692830	     -7.51276583	     -1.07296063	      6.39437333	     -7.87101646	     29.52692248	     -9.29443840	      0.51534202	     27.60068314	      4.88467901	     -7.51276583	    -41.45153490	      4.54186027	     -6.60814192	     13.23715072	     -5.27182217	     -3.60737152	     32.74271082	     90.00000001	      0.00000000	      0.00000000	     25.03998539	    -11.02047631	     -2.23028332	     31.50436075	     90.00000001	      0.00000000	      0.00000000
      2.01000000	     12.69824434	      0.65559732	      8.78817735	      0.31822073	      0.87958845	      0.15551736	     12.29561862	      1.35453195	     -7.33127502	     40.61242902	     -2.75787703	      0.70882060	     16.61644372	    -14.59090377	     -7.51220982	     -2.00111569	      5.74028637	     -8.57211031	     29.38314716	     -9.06703823	      0.51283266	     28.39460606	      6.38045096	     -7.51220982	    -41.71263626	      4.73284456	     -6.37835487	     12.89903385	     -5.09554203	     -4.88617502	     32.20696866	     90.00000001	      0.00000000	      0.00000000	     25.43966106	    -11.30658687	     -0.51060168	     32.24954155	     90.00000001	      0.00000000	      0.00000000
      2.02000000	     12.43122577	      0.61228241	      8.82131727	      0.32631276	      0.87851453	      0.15575860	     12.78398407	      1.42423543	     -6.87852459	     37.06685169	     -2.39902365	      0.64693861	     16.10572073	    -14.87206997	     -7.51077532	     -2.06527954	      5.46455476	     -9.85783669	     29.68580997	     -9.47018347	      0.51811513	     29.39003642	      8.33393782	     -7.51077532	    -41.50455126	      4.78058189	     -6.30623679	     12.50532280	     -4.98794957	     -5.78852435	     31.81977075	     90.00000001	      0.00000000	      0.00000000	     25.88817737	    -11.48844008	      0.49215361	     32.85564223	     90.00000001	      0.00000000	      0.00000000
      2.03000000	     11.92717272	      0.80060857	      8.90425675	      0.33425356	      0.87691041	      0.15558816	     13.64376224	      1.02554891	     -7.14713623	     33.91840917	     -2.28470718	      0.59198792	     16.21757650	    -14.10578809	     -7.51053052	     -2.06034870	      5.77414989	    -10.00096364	     29.77516948	     -9.79375555	      0.51967474	     29.90276527	      8.36964667	     -7.51053052	    -41.05718843	      4.63886912	     -6.46982254	     12.07162012	     -4.98217574	     -6.00372506	     31.50716868	     90.00000001	      0.00000000	      0.00000000	     26.33709996	    -11.55448771	      0.84698927	     33.28044646	     90.00000001	      0.00000000	      0.00000000
      2.04000000	     12.09172240	      0.61313687	      8.95621133	      0.34285821	      0.87675354	      0.15614939	     13.13299954	      1.46315266	     -6.86361039	     29.66800732	     -2.10904562	      0.51780441	     15.72108585	    -14.12799527	     -7.50962570	     -2.86592338	      5.11884301	    -10.76507876	     29.74086551	     -9.71137365	      0.51907603	     30.75724811	      9.88839541	     -7.50962570	    -41.29371256	      4.86872264	     -6.24423684	     11.74716372	     -4.86514725	     -7.11744544	     31.11281666	     90.00000001	      0.00000000	      0.00000000	     26.73057299	    -11.76575369	      1.96744417	     33.97557585	     90.00000001	      0.00000000	      0.00000000
      2.05000000	     11.83683154	      0.60640857	      9.07280819	      0.35114411	      0.87553041	      0.15627853	     13.36530549	      1.43078777	     -7.27147107	     26.24814703	     -2.07072721	      0.45811659	     15.73771417	    -13.16071550	     -7.50926681	     -3.12404730	      4.98913029	    -10.99030290	     29.89946476	     -9.82109578	      0.52184410	     31.44228979	     10.20103620	     -7.50926681	    -41.08675075	      4.94312320	     -6.24739501	     11.37034697	     -4.87384150	     -7.53545038	     30.77698758	     90.00000001	      0.00000000	      0.00000000	     27.11281322	    -11.84219403	      2.42656373	     34.52015311	     90.00000001	      0.00000000	      0.00000000
      2.06000000	     11.37594978	      0.74286931	      9.14223085	      0.35929088	      0.87374991	      0.15634623	     13.99241770	      1.11459746	     -7.75321675	     23.53607747	     -1.94162134	      0.41078204	     15.71513308	    -12.29535526	     -7.50907799	     -3.17177477	      5.26643613	    -11.11053562	     29.98598367	    -10.26083146	      0.52335414	     32.03159112	     10.30967221	     -7.50907799	    -40.68249665	      4.84624635	     -6.33715859	     10.94172453	     -4.88072914	     -7.80567011	     30.58788562	     90.00000001	      0.00000000	      0.00000000	     27.43691078	    -11.90409670	      2.71990516	     35.00132273	     90.00000001	      0.00000000	      0.00000000
      2.07000000	     11.57258875	      0.44904706	      9.22404085	      0.36833199	      0.87331448	      0.15710366	     13.21606190	      1.69031810	     -7.37511625	     19.89810816	     -1.73586726	      0.34728750	     15.04437973	    -12.28759970	     -7.50809922	     -3.96940756	      4.41747176	    -11.91058965	     30.08832843	    -10.15480842	      0.52514040	     32.97364315	     11.92475910	     -7.50809922	    -40.88122605	      5.18950405	     -6.01813600	     10.63123208	     -4.79543257	     -8.99380970	     30.24918878	     90.00000001	      0.00000000	      0.00000000	     27.66586989	    -12.01165354	      3.58550646	     35.76788228	     90.00000001	      0.00000000	      0.00000000
      2.08000000	     11.11270127	      0.61089032	      9.05346285	      0.37677178	      0.87136261	      0.15789859	     14.14877291	      1.36154200	     -8.05446931	     18.73340904	     -1.54580577	      0.32695967	     15.05963637	    -11.90777685	     -7.50801544	     -4.11738950	      4.57426244	    -12.00457375	     30.13272744	    -10.16031920	      0.52591531	     33.15747159	     11.81989696	     -7.50801544	    -40.47652417	      4.89089781	     -5.84675050	     10.15576417	     -4.87173254	     -9.03809192	     30.12067679	     90.00000001	      0.00000000	      0.00000000	     27.97673890	    -11.92406794	      3.62770450	     36.17804457	     90.00000001	      0.00000000	      0.00000000
